<svg xmlns="http://www.w3.org/2000/svg" xmlns:xlink="http://www.w3.org/1999/xlink" width="1120.058" height="830.003" viewBox="0 0 1120.058 830.003">
  <defs>
    <clipPath id="clip-path">
      <path id="Path_9" data-name="Path 9" d="M1822.908,1357.025V607.109L1674.5,737.6V667.6l148.405-127.135h58.258v816.564Zm312.832,0V607.109L1987.32,737.6V667.6l148.42-127.135h58.243v816.564Zm631.618-98.292q-27.2,49.019-76.555,77.006-49.347,28.015-111.026,28.005-61.694,0-111.041-28.005-49.37-27.992-76.55-77.006t-27.193-112.848V751.6q0-47.04,15.982-87.365t44.307-69.723a190.015,190.015,0,0,1,67.851-45.094q39.534-15.667,86.645-15.677,47.648,0,87.2,15.677a192.945,192.945,0,0,1,68.135,45.094q28.586,29.393,44.022,69.723,15.408,40.326,15.429,87.365v394.284Q2794.562,1209.741,2767.358,1258.733ZM2736.318,757.2q0-75.611-41.17-123.77t-115.1-48.159q-73.357,0-114.522,48.159-41.171,48.182-41.166,123.77v383.089q0,75.611,41.166,123.775t114.522,48.164q73.936,0,115.1-48.164t41.17-123.775Z" transform="translate(-1674.503 -533.741)" clip-rule="evenodd"/>
    </clipPath>
  </defs>
  <g id="tetmajera-110-logo-sign" transform="translate(-1674.503 -533.741)">
    <g id="Group_21" data-name="Group 21" transform="translate(1674.503 533.741)" clip-path="url(#clip-path)">
      <rect id="Rectangle_8" data-name="Rectangle 8" width="1120.058" height="829.998"/>
    </g>
  </g>
</svg>
