<svg xmlns="http://www.w3.org/2000/svg" width="14.698" height="14.698" viewBox="0 0 14.698 14.698">
  <g id="instagram" opacity="0.65">
    <g id="Group_15" data-name="Group 15">
      <g id="Group_14" data-name="Group 14">
        <path id="Path_6" data-name="Path 6" d="M10.1,0H4.593A4.593,4.593,0,0,0,0,4.593V10.1A4.593,4.593,0,0,0,4.593,14.7H10.1A4.593,4.593,0,0,0,14.7,10.1V4.593A4.593,4.593,0,0,0,10.1,0ZM13.32,10.1A3.219,3.219,0,0,1,10.1,13.32H4.593A3.219,3.219,0,0,1,1.378,10.1V4.593A3.219,3.219,0,0,1,4.593,1.378H10.1A3.219,3.219,0,0,1,13.32,4.593Z" fill="#222"/>
      </g>
    </g>
    <g id="Group_17" data-name="Group 17" transform="translate(3.674 3.674)">
      <g id="Group_16" data-name="Group 16">
        <path id="Path_7" data-name="Path 7" d="M131.674,128a3.674,3.674,0,1,0,3.674,3.674A3.675,3.675,0,0,0,131.674,128Zm0,5.971a2.3,2.3,0,1,1,2.3-2.3A2.3,2.3,0,0,1,131.674,133.971Z" transform="translate(-128 -128)" fill="#222"/>
      </g>
    </g>
    <g id="Group_19" data-name="Group 19" transform="translate(10.809 2.909)">
      <g id="Group_18" data-name="Group 18">
        <circle id="Ellipse_2" data-name="Ellipse 2" cx="0.49" cy="0.49" r="0.49" fill="#222"/>
      </g>
    </g>
  </g>
</svg>
