<svg id="chat" xmlns="http://www.w3.org/2000/svg" width="36.612" height="36.612" viewBox="0 0 36.612 36.612">
  <g id="Group_35" data-name="Group 35" transform="translate(6.865 6.865)">
    <g id="Group_34" data-name="Group 34">
      <path id="Path_37" data-name="Path 37" d="M110.874,96H97.144a1.144,1.144,0,0,0,0,2.288h13.73a1.144,1.144,0,0,0,0-2.288Z" transform="translate(-96 -96)" fill="#1ad768"/>
    </g>
  </g>
  <g id="Group_37" data-name="Group 37" transform="translate(6.865 11.441)">
    <g id="Group_36" data-name="Group 36">
      <path id="Path_38" data-name="Path 38" d="M106.3,160H97.144a1.144,1.144,0,1,0,0,2.288H106.3a1.144,1.144,0,1,0,0-2.288Z" transform="translate(-96 -160)" fill="#1ad768"/>
    </g>
  </g>
  <g id="Group_39" data-name="Group 39">
    <g id="Group_38" data-name="Group 38">
      <path id="Path_39" data-name="Path 39" d="M25.171,0H4.577A4.581,4.581,0,0,0,0,4.577V27.459A1.143,1.143,0,0,0,.659,28.5a1.161,1.161,0,0,0,.485.108,1.144,1.144,0,0,0,.732-.265l6.547-5.455H25.171a4.581,4.581,0,0,0,4.577-4.577V4.577A4.581,4.581,0,0,0,25.171,0Zm2.288,18.306a2.291,2.291,0,0,1-2.288,2.288H8.009a1.143,1.143,0,0,0-.732.265L2.288,25.017V4.577A2.291,2.291,0,0,1,4.577,2.288H25.171a2.291,2.291,0,0,1,2.288,2.288Z" fill="#1ad768"/>
    </g>
  </g>
  <g id="Group_41" data-name="Group 41" transform="translate(9.153 9.153)">
    <g id="Group_40" data-name="Group 40">
      <path id="Path_40" data-name="Path 40" d="M150.883,128a1.144,1.144,0,1,0,0,2.288,2.291,2.291,0,0,1,2.288,2.288v19.356l-3.863-3.089a1.153,1.153,0,0,0-.714-.249H132.577a2.291,2.291,0,0,1-2.288-2.288v-1.144a1.144,1.144,0,0,0-2.288,0v1.144a4.581,4.581,0,0,0,4.577,4.577h15.615l5.407,4.327a1.145,1.145,0,0,0,1.86-.895V132.577A4.581,4.581,0,0,0,150.883,128Z" transform="translate(-128 -128)" fill="#1ad768"/>
    </g>
  </g>
</svg>
