<?xml version="1.0" encoding="UTF-8" standalone="no"?>
<!DOCTYPE svg PUBLIC "-//W3C//DTD SVG 1.1//EN" "http://www.w3.org/Graphics/SVG/1.1/DTD/svg11.dtd">
<svg width="100%" height="100%" viewBox="0 0 1344 627" version="1.1" xmlns="http://www.w3.org/2000/svg" xmlns:xlink="http://www.w3.org/1999/xlink" xml:space="preserve" xmlns:serif="http://www.serif.com/" style="fill-rule:evenodd;clip-rule:evenodd;stroke-linejoin:round;stroke-miterlimit:2;">
    <g id="Artboard1" transform="matrix(1,0,0,1,-73.587,-162.826)">
        <rect x="73.587" y="162.826" width="1343.7" height="626.957" style="fill:none;"/>
        <g transform="matrix(1,0,0,1,-12.9458,0.826099)">
            <g>
                <path d="M1342.49,652.367C1347.79,649.042 1352.54,644.918 1356.74,639.996C1369.7,624.832 1376.18,605.348 1376.18,581.544L1376.18,400.636C1376.18,376.833 1369.7,357.349 1356.74,342.185C1343.78,327.021 1325.67,319.439 1302.39,319.439C1279.29,319.439 1261.27,327.021 1248.31,342.185C1235.35,357.349 1228.87,376.833 1228.87,400.636L1228.87,581.544C1228.87,589.966 1229.68,597.847 1231.3,605.189L1216.19,641.756C1215.32,640.361 1214.48,638.937 1213.67,637.483C1205.11,622.055 1200.83,604.29 1200.83,584.189L1200.83,397.991C1200.83,383.18 1203.35,369.427 1208.38,356.732C1213.41,344.036 1220.38,333.06 1229.3,323.803C1238.21,314.546 1248.9,307.449 1261.34,302.512C1273.79,297.575 1287.43,295.106 1302.26,295.106C1317.27,295.106 1330.99,297.575 1343.44,302.512C1355.89,307.449 1366.61,314.546 1375.62,323.803C1384.62,333.06 1391.55,344.036 1396.41,356.732C1401.26,369.427 1403.69,383.18 1403.69,397.991L1403.69,584.189C1403.69,604.29 1399.41,622.055 1390.85,637.483C1382.28,652.912 1370.23,665.034 1354.7,673.85C1354.1,674.189 1353.5,674.521 1352.9,674.847L1342.49,652.367ZM985.968,553.983L958.462,553.983L958.462,329.754L888.373,391.379L888.373,358.319L958.462,298.28L985.968,298.28L985.968,553.983ZM1104.38,553.983L1104.38,329.754L1034.29,391.379L1034.29,358.319L1092.43,308.521L1092.19,308.241L1255.22,170.286L1270.72,188.604L1131.89,306.082L1131.89,553.983L1104.38,553.983Z" style="fill:rgb(27,215,103);fill-rule:nonzero;"/>
            </g>
            <g transform="matrix(1,0,0,1,4.74837,312.125)">
                <g transform="matrix(150,0,0,150,114.427,367.297)">
                    <path d="M0.382,-0.564L0.382,0L0.226,0L0.226,-0.564L0.028,-0.564L0.028,-0.699L0.58,-0.699L0.58,-0.564L0.382,-0.564Z" style="fill:white;fill-rule:nonzero;"/>
                </g>
                <g transform="matrix(150,0,0,150,240.127,367.297)">
                    <path d="M0.59,-0.699L0.59,-0.56L0.242,-0.56L0.242,-0.416L0.555,-0.416L0.555,-0.283L0.242,-0.283L0.242,-0.138L0.601,-0.138L0.601,0L0.086,0L0.086,-0.699L0.59,-0.699Z" style="fill:white;fill-rule:nonzero;"/>
                </g>
                <g transform="matrix(150,0,0,150,372.727,367.297)">
                    <path d="M0.382,-0.564L0.382,0L0.226,0L0.226,-0.564L0.028,-0.564L0.028,-0.699L0.58,-0.699L0.58,-0.564L0.382,-0.564Z" style="fill:white;fill-rule:nonzero;"/>
                </g>
                <g transform="matrix(150,0,0,150,498.427,367.297)">
                    <path d="M0.712,-0.44L0.523,-0.058L0.43,-0.058L0.242,-0.44L0.242,0L0.086,0L0.086,-0.699L0.297,-0.699L0.477,-0.315L0.658,-0.699L0.868,-0.699L0.868,0L0.712,0L0.712,-0.44Z" style="fill:white;fill-rule:nonzero;"/>
                </g>
                <g transform="matrix(150,0,0,150,676.027,367.297)">
                    <path d="M0.584,0L0.519,-0.151L0.226,-0.151L0.161,0L-0.005,0L0.297,-0.699L0.448,-0.699L0.75,0L0.584,0ZM0.373,-0.491L0.285,-0.288L0.46,-0.288L0.373,-0.491Z" style="fill:white;fill-rule:nonzero;"/>
                </g>
                <g transform="matrix(150,0,0,150,822.277,367.297)">
                    <path d="M0.112,-0.565L0.112,-0.699L0.476,-0.699L0.476,-0.243C0.476,-0.16 0.455,-0.097 0.411,-0.056C0.369,-0.015 0.313,0.006 0.246,0.006C0.162,0.006 0.089,-0.026 0.026,-0.091L0.107,-0.203C0.149,-0.158 0.193,-0.135 0.239,-0.135C0.261,-0.135 0.28,-0.143 0.296,-0.161C0.311,-0.178 0.319,-0.203 0.319,-0.237L0.319,-0.565L0.112,-0.565Z" style="fill:white;fill-rule:nonzero;"/>
                </g>
                <g transform="matrix(150,0,0,150,940.177,367.297)">
                    <path d="M0.59,-0.699L0.59,-0.56L0.242,-0.56L0.242,-0.416L0.555,-0.416L0.555,-0.283L0.242,-0.283L0.242,-0.138L0.601,-0.138L0.601,0L0.086,0L0.086,-0.699L0.59,-0.699Z" style="fill:white;fill-rule:nonzero;"/>
                </g>
                <g transform="matrix(150,0,0,150,1072.78,367.297)">
                    <path d="M0.653,-0.467C0.653,-0.355 0.609,-0.283 0.52,-0.25L0.697,0L0.505,0L0.35,-0.223L0.242,-0.223L0.242,0L0.086,0L0.086,-0.699L0.351,-0.699C0.46,-0.699 0.537,-0.681 0.584,-0.644C0.63,-0.607 0.653,-0.548 0.653,-0.467ZM0.356,-0.358C0.409,-0.358 0.446,-0.367 0.465,-0.384C0.484,-0.401 0.494,-0.429 0.494,-0.467C0.494,-0.504 0.484,-0.53 0.464,-0.544C0.444,-0.558 0.409,-0.565 0.359,-0.565L0.242,-0.565L0.242,-0.358L0.356,-0.358Z" style="fill:white;fill-rule:nonzero;"/>
                </g>
                <g transform="matrix(150,0,0,150,1216.33,367.297)">
                    <path d="M0.584,0L0.519,-0.151L0.226,-0.151L0.161,0L-0.005,0L0.297,-0.699L0.448,-0.699L0.75,0L0.584,0ZM0.373,-0.491L0.285,-0.288L0.46,-0.288L0.373,-0.491Z" style="fill:white;fill-rule:nonzero;"/>
                </g>
            </g>
            <g transform="matrix(0.466739,0,0,0.159236,389.363,684.79)">
                <g transform="matrix(62.4903,0,0,183.167,171.587,391.907)">
                    <path d="M0.584,0L0.519,-0.151L0.226,-0.151L0.161,0L-0.005,0L0.297,-0.699L0.448,-0.699L0.75,0L0.584,0ZM0.373,-0.491L0.285,-0.288L0.46,-0.288L0.373,-0.491Z" style="fill:white;fill-rule:nonzero;"/>
                </g>
                <g transform="matrix(62.4903,0,0,183.167,279.383,391.907)">
                    <path d="M0.333,-0.699C0.44,-0.699 0.519,-0.678 0.568,-0.636C0.617,-0.595 0.641,-0.531 0.641,-0.445C0.641,-0.358 0.616,-0.295 0.566,-0.255C0.515,-0.215 0.438,-0.195 0.335,-0.195L0.242,-0.195L0.242,0L0.086,0L0.086,-0.699L0.333,-0.699ZM0.347,-0.33C0.399,-0.33 0.434,-0.341 0.453,-0.362C0.472,-0.383 0.481,-0.413 0.481,-0.454C0.481,-0.494 0.469,-0.523 0.445,-0.54C0.42,-0.557 0.382,-0.565 0.331,-0.565L0.242,-0.565L0.242,-0.33L0.347,-0.33Z" style="fill:white;fill-rule:nonzero;"/>
                </g>
                <g transform="matrix(62.4903,0,0,183.167,380.367,391.907)">
                    <path d="M0.584,0L0.519,-0.151L0.226,-0.151L0.161,0L-0.005,0L0.297,-0.699L0.448,-0.699L0.75,0L0.584,0ZM0.373,-0.491L0.285,-0.288L0.46,-0.288L0.373,-0.491Z" style="fill:white;fill-rule:nonzero;"/>
                </g>
                <g transform="matrix(62.4903,0,0,183.167,488.163,391.907)">
                    <path d="M0.653,-0.467C0.653,-0.355 0.609,-0.283 0.52,-0.25L0.697,0L0.505,0L0.35,-0.223L0.242,-0.223L0.242,0L0.086,0L0.086,-0.699L0.351,-0.699C0.46,-0.699 0.537,-0.681 0.584,-0.644C0.63,-0.607 0.653,-0.548 0.653,-0.467ZM0.356,-0.358C0.409,-0.358 0.446,-0.367 0.465,-0.384C0.484,-0.401 0.494,-0.429 0.494,-0.467C0.494,-0.504 0.484,-0.53 0.464,-0.544C0.444,-0.558 0.409,-0.565 0.359,-0.565L0.242,-0.565L0.242,-0.358L0.356,-0.358Z" style="fill:white;fill-rule:nonzero;"/>
                </g>
                <g transform="matrix(62.4903,0,0,183.167,593.959,391.907)">
                    <path d="M0.382,-0.564L0.382,0L0.226,0L0.226,-0.564L0.028,-0.564L0.028,-0.699L0.58,-0.699L0.58,-0.564L0.382,-0.564Z" style="fill:white;fill-rule:nonzero;"/>
                </g>
                <g transform="matrix(62.4903,0,0,183.167,690.006,391.907)">
                    <path d="M0.584,0L0.519,-0.151L0.226,-0.151L0.161,0L-0.005,0L0.297,-0.699L0.448,-0.699L0.75,0L0.584,0ZM0.373,-0.491L0.285,-0.288L0.46,-0.288L0.373,-0.491Z" style="fill:white;fill-rule:nonzero;"/>
                </g>
                <g transform="matrix(62.4903,0,0,183.167,797.802,391.907)">
                    <path d="M0.712,-0.44L0.523,-0.058L0.43,-0.058L0.242,-0.44L0.242,0L0.086,0L0.086,-0.699L0.297,-0.699L0.477,-0.315L0.658,-0.699L0.868,-0.699L0.868,0L0.712,0L0.712,-0.44Z" style="fill:white;fill-rule:nonzero;"/>
                </g>
                <g transform="matrix(62.4903,0,0,183.167,918.658,391.907)">
                    <path d="M0.59,-0.699L0.59,-0.56L0.242,-0.56L0.242,-0.416L0.555,-0.416L0.555,-0.283L0.242,-0.283L0.242,-0.138L0.601,-0.138L0.601,0L0.086,0L0.086,-0.699L0.59,-0.699Z" style="fill:white;fill-rule:nonzero;"/>
                </g>
                <g transform="matrix(62.4903,0,0,183.167,1020.77,391.907)">
                    <path d="M0.575,-0.699L0.731,-0.699L0.731,0L0.575,0L0.242,-0.438L0.242,0L0.086,0L0.086,-0.699L0.232,-0.699L0.575,-0.249L0.575,-0.699Z" style="fill:white;fill-rule:nonzero;"/>
                </g>
                <g transform="matrix(62.4903,0,0,183.167,1133.06,391.907)">
                    <path d="M0.382,-0.564L0.382,0L0.226,0L0.226,-0.564L0.028,-0.564L0.028,-0.699L0.58,-0.699L0.58,-0.564L0.382,-0.564Z" style="fill:white;fill-rule:nonzero;"/>
                </g>
                <g transform="matrix(62.4903,0,0,183.167,1232.3,391.907)">
                    <path d="M0.387,0L0.231,0L0.231,-0.276L-0.011,-0.699L0.158,-0.699L0.309,-0.439L0.46,-0.699L0.629,-0.699L0.387,-0.276L0.387,0Z" style="fill:white;fill-rule:nonzero;"/>
                </g>
            </g>
        </g>
    </g>
</svg>
